<svg width="48" height="48" viewBox="0 0 48 48" fill="none" xmlns="http://www.w3.org/2000/svg">
<path fill-rule="evenodd" clip-rule="evenodd" d="M7.16228 14.5726C8.76774 13.7936 10.8206 14.2559 11.7475 15.6052C13.7087 18.46 14.7411 21.6984 14.7411 24.9949C14.7411 28.2914 13.7087 31.5298 11.7475 34.3846C10.8206 35.7339 8.76773 36.1962 7.16228 35.4172C5.55682 34.6382 5.00675 32.9129 5.93366 31.5636C7.3056 29.5664 8.02787 27.301 8.02787 24.9949C8.02788 22.6888 7.30561 20.4234 5.93367 18.4263C5.00676 17.077 5.55683 15.3516 7.16228 14.5726Z" fill="#19CE5D"/>
<path fill-rule="evenodd" clip-rule="evenodd" d="M19.5112 8.41777C21.1226 7.60437 23.183 8.08708 24.1133 9.49592C27.0702 13.9737 28.6269 19.0532 28.6269 24.2237C28.6269 29.3942 27.0702 34.4737 24.1133 38.9515C23.183 40.3603 21.1226 40.843 19.5112 40.0296C17.8999 39.2162 17.3478 37.4148 18.2781 36.0059C20.6436 32.4237 21.8889 28.3601 21.8889 24.2237C21.8889 20.0873 20.6436 16.0237 18.2781 12.4415C17.3478 11.0326 17.8999 9.23116 19.5112 8.41777Z" fill="#19CE5D"/>
<path fill-rule="evenodd" clip-rule="evenodd" d="M33.0646 2.97981C34.7353 1.88654 36.8717 2.53533 37.8363 4.42893C40.9022 10.4475 42.5163 17.2747 42.5163 24.2243C42.5163 31.174 40.9022 38.0012 37.8363 44.0198C36.8717 45.9134 34.7353 46.5622 33.0646 45.4689C31.3938 44.3756 30.8213 41.9543 31.786 40.0607C34.2387 35.2458 35.5299 29.7841 35.5299 24.2243C35.5299 18.6646 34.2387 13.2029 31.786 8.38801C30.8214 6.49441 31.3938 4.07308 33.0646 2.97981Z" fill="#19CE5D"/>
</svg>
